name C:\Users\antoi\Documents\MyRepositories\upper-imu-dc\Results\main_tracking\Case_83\kinematics.mot
datacolumns 10
datarows 47
range 1.70000000 2.16000000
endheader 
time	clav_prot	clav_elev	scapula_abduction	scapula_elevation	scapula_upward_rot	scapula_winging	plane_elv	shoulder_elv	axial_rot	
          1.70000000	        -29.17097193	        -29.99840556	        -31.03083793	        -20.36121468	         -7.23260067	         26.42639773	        -15.51854004	         38.79800234	         56.31519193	
          1.71000000	        -29.47688499	        -29.99990743	        -31.51574057	        -20.41219993	         -7.12447199	         26.39822141	        -15.44319557	         38.46873066	         56.63357833	
          1.72000000	        -29.78259108	        -29.99607932	        -31.99919682	        -20.45832125	         -7.01481008	         26.36141046	        -15.36756692	         38.13130500	         56.95677787	
          1.73000000	        -30.08791365	        -29.98717250	        -32.48099877	        -20.49971440	         -6.90396954	         26.31627731	        -15.29286625	         37.78655245	         57.28374481	
          1.74000000	        -30.39273959	        -29.97351537	        -32.96105284	        -20.53659226	         -6.79230970	         26.26322362	        -15.22037448	         37.43535655	         57.61335986	
          1.75000000	        -30.69699958	        -29.95551432	        -33.43935452	        -20.56923894	         -6.68021227	         26.20274165	        -15.15142751	         37.07866039	         57.94450482	
          1.76000000	        -31.00064787	        -29.93365398	        -33.91596625	        -20.59800065	         -6.56810797	         26.13541638	        -15.08739588	         36.71747204	         58.27614628	
          1.77000000	        -31.30362704	        -29.90848364	        -34.39096507	        -20.62326572	         -6.45649287	         26.06191476	        -15.02966197	         36.35286117	         58.60740613	
          1.78000000	        -31.60583667	        -29.88060359	        -34.86439856	        -20.64544397	         -6.34594777	         25.98297617	        -14.97959513	         35.98595243	         58.93764127	
          1.79000000	        -31.90710295	        -29.85064836	        -35.33624219	        -20.66494392	         -6.23715617	         25.89940090	        -14.93852565	         35.61791570	         59.26651856	
          1.80000000	        -32.20715141	        -29.81926605	        -35.80635914	        -20.68214836	         -6.13091588	         25.81203494	        -14.90771748	         35.24995183	         59.59407657	
          1.81000000	        -32.50558757	        -29.78709634	        -36.27447014	        -20.69739186	         -6.02814193	         25.72175285	        -14.88834023	         34.88327529	         59.92076488	
          1.82000000	        -32.80188884	        -29.75474998	        -36.74013680	        -20.71094376	         -5.92985725	         25.62944028	        -14.88144336	         34.51909413	         60.24744865	
          1.83000000	        -33.09541070	        -29.72279262	        -37.20276252	        -20.72300048	         -5.83716834	         25.53597816	        -14.88793499	         34.15858745	         60.57536955	
          1.84000000	        -33.38540860	        -29.69173568	        -37.66161271	        -20.73368946	         -5.75122541	         25.44222984	        -14.90856705	         33.80288033	         60.90605964	
          1.85000000	        -33.67107455	        -29.66203571	        -38.11585332	        -20.74308575	         -5.67316872	         25.34903249	        -14.94392973	         33.45301736	         61.24121135	
          1.86000000	        -33.95158574	        -29.63410327	        -38.56460478	        -20.75124064	         -5.60406528	         25.25719372	        -14.99445785	         33.10993773	         61.58251304	
          1.87000000	        -34.22616154	        -29.60831793	        -39.00700700	        -20.75821785	         -5.54484011	         25.16749033	        -15.06044861	         32.77445335	         61.93146364	
          1.88000000	        -34.49412629	        -29.58504981	        -39.44229410	        -20.76413556	         -5.49620849	         25.08067020	        -15.14209474	         32.44723471	         62.28917524	
          1.89000000	        -34.75497159	        -29.56468014	        -39.86986946	        -20.76920634	         -5.45861234	         24.99745108	        -15.23952638	         32.12880281	         62.65618414	
          1.90000000	        -35.00840709	        -29.54760879	        -40.28936423	        -20.77376182	         -5.43216507	         24.91850598	        -15.35284180	         31.81952337	         63.03230800	
          1.91000000	        -35.25440125	        -29.53427828	        -40.70069251	        -20.77828428	         -5.41662522	         24.84446994	        -15.48216727	         31.51962870	         63.41653295	
          1.92000000	        -35.49318252	        -29.52513403	        -41.10403204	        -20.78337979	         -5.41135938	         24.77588500	        -15.62762990	         31.22919877	         63.80702573	
          1.93000000	        -35.72521871	        -29.52063959	        -41.49980713	        -20.78977972	         -5.41538477	         24.71321795	        -15.78939456	         30.94822816	         64.20122646	
          1.94000000	        -35.95119929	        -29.52123515	        -41.88866584	        -20.79829494	         -5.42739226	         24.65681522	        -15.96762086	         30.67663913	         64.59597447	
          1.95000000	        -36.17200886	        -29.52721964	        -42.27141083	        -20.80971515	         -5.44570951	         24.60677318	        -16.16237372	         30.41421005	         64.98758746	
          1.96000000	        -36.38863259	        -29.53870370	        -42.64884161	        -20.82475619	         -5.46831673	         24.56290971	        -16.37365558	         30.16058451	         65.37200871	
          1.97000000	        -36.60213719	        -29.55568702	        -43.02182740	        -20.84406943	         -5.49307033	         24.52486943	        -16.60129119	         29.91540540	         65.74522726	
          1.98000000	        -36.81359852	        -29.57800234	        -43.39115869	        -20.86819866	         -5.51765656	         24.49207831	        -16.84502599	         29.67825764	         66.10320437	
          1.99000000	        -37.02402695	        -29.60522195	        -43.75744446	        -20.89747032	         -5.53965854	         24.46366675	        -17.10439607	         29.44864599	         66.44216442	
          2.00000000	        -37.23436292	        -29.63667755	        -44.12112223	        -20.93199930	         -5.55659901	         24.43849653	        -17.37871380	         29.22596280	         66.75863280	
          2.01000000	        -37.44540371	        -29.67152438	        -44.48239915	        -20.97170607	         -5.56607899	         24.41526307	        -17.66707851	         29.00955876	         67.04966471	
          2.02000000	        -37.65775168	        -29.70874782	        -44.84118829	        -21.01630442	         -5.56583276	         24.39252352	        -17.96833992	         28.79871332	         67.31296256	
          2.03000000	        -37.87180803	        -29.74723485	        -45.19713551	        -21.06534655	         -5.55380299	         24.36878535	        -18.28116289	         28.59265167	         67.54686501	
          2.04000000	        -38.08774827	        -29.78582657	        -45.54961344	        -21.11825144	         -5.52821063	         24.34257998	        -18.60406271	         28.39056338	         67.75039147	
          2.05000000	        -38.30549230	        -29.82337295	        -45.89770838	        -21.17433546	         -5.48762469	         24.31254205	        -18.93541330	         28.19163013	         67.92331900	
          2.06000000	        -38.52470753	        -29.85879842	        -46.24025912	        -21.23285870	         -5.43101904	         24.27749112	        -19.27343985	         27.99505045	         68.06621799	
          2.07000000	        -38.74481775	        -29.89116306	        -46.57589996	        -21.29307229	         -5.35781310	         24.23650670	        -19.61625219	         27.80007996	         68.18043761	
          2.08000000	        -38.96497842	        -29.91970568	        -46.90304888	        -21.35424700	         -5.26791398	         24.18899513	        -19.96191268	         27.60611250	         68.26812320	
          2.09000000	        -39.18407081	        -29.94387719	        -47.21992439	        -21.41569632	         -5.16174976	         24.13474020	        -20.30845839	         27.41276826	         68.33224364	
          2.10000000	        -39.40085392	        -29.96340238	        -47.52477396	        -21.47686472	         -5.04018685	         24.07392373	        -20.65394444	         27.21986283	         68.37628495	
          2.11000000	        -39.61403545	        -29.97829528	        -47.81599458	        -21.53734965	         -4.90451504	         24.00712216	        -20.99644164	         27.02742873	         68.40417848	
          2.12000000	        -39.82223584	        -29.98883476	        -48.09207852	        -21.59687758	         -4.75644707	         23.93529497	        -21.33416429	         26.83578051	         68.42025576	
          2.13000000	        -40.02396594	        -29.99550514	        -48.35158817	        -21.65524205	         -4.59813897	         23.85972987	        -21.66549591	         26.64556268	         68.42928760	
          2.14000000	        -40.21773676	        -29.99896300	        -48.59329763	        -21.71230285	         -4.43209843	         23.78196138	        -21.98904988	         26.45769011	         68.43622273	
          2.15000000	        -40.40212826	        -30.00000000	        -48.81627371	        -21.76797392	         -4.26111618	         23.70369851	        -22.30370913	         26.27332368	         68.44603378	
          2.16000000	        -40.57577836	        -29.99943260	        -49.01980299	        -21.82214157	         -4.08817090	         23.62668798	        -22.60857267	         26.09381309	         68.46366918	
